<?xml version="1.0" encoding="UTF-8" standalone="no"?>
<!-- Created with Inkscape (http://www.inkscape.org/) -->

<svg
   xmlns:dc="http://purl.org/dc/elements/1.1/"
   xmlns:cc="http://creativecommons.org/ns#"
   xmlns:rdf="http://www.w3.org/1999/02/22-rdf-syntax-ns#"
   xmlns:svg="http://www.w3.org/2000/svg"
   xmlns="http://www.w3.org/2000/svg"
   xmlns:xlink="http://www.w3.org/1999/xlink"
   xmlns:sodipodi="http://sodipodi.sourceforge.net/DTD/sodipodi-0.dtd"
   xmlns:inkscape="http://www.inkscape.org/namespaces/inkscape"
   width="210mm"
   height="297mm"
   id="svg2"
   version="1.1"
   inkscape:version="0.48.1 "
   sodipodi:docname="Nouveau document 1">
  <defs
     id="defs4">
    <linearGradient
       id="linearGradient3803"
       inkscape:collect="always">
      <stop
         id="stop3805"
         offset="0"
         style="stop-color:#640000;stop-opacity:1;" />
      <stop
         id="stop3807"
         offset="1"
         style="stop-color:#640000;stop-opacity:0;" />
    </linearGradient>
    <radialGradient
       inkscape:collect="always"
       xlink:href="#linearGradient3803"
       id="radialGradient3783"
       cx="254.51913"
       cy="406.74451"
       fx="254.51913"
       fy="406.74451"
       r="188.66048"
       gradientTransform="matrix(1.6117335,0,0,0.11479366,-36.752426,389.04676)"
       gradientUnits="userSpaceOnUse"
       spreadMethod="reflect" />
    <radialGradient
       inkscape:collect="always"
       xlink:href="#linearGradient3803"
       id="radialGradient3797"
       gradientUnits="userSpaceOnUse"
       gradientTransform="matrix(0.69412869,0.49798255,-0.27957561,0.04402409,92.120513,206.79984)"
       spreadMethod="reflect"
       cx="254.51913"
       cy="406.74451"
       fx="254.51913"
       fy="406.74451"
       r="188.66048" />
    <radialGradient
       inkscape:collect="always"
       xlink:href="#linearGradient3803"
       id="radialGradient3801"
       cx="112.22363"
       cy="307.80136"
       fx="112.22363"
       fy="307.80136"
       r="59.712402"
       gradientTransform="matrix(1.3256516,0,0,1.746572,-17.100364,-212.62329)"
       gradientUnits="userSpaceOnUse"
       spreadMethod="reflect" />
    <filter
       inkscape:collect="always"
       id="filter3905">
      <feGaussianBlur
         inkscape:collect="always"
         stdDeviation="0.43086857"
         id="feGaussianBlur3907" />
    </filter>
    <filter
       inkscape:collect="always"
       id="filter3909">
      <feGaussianBlur
         inkscape:collect="always"
         stdDeviation="0.43086857"
         id="feGaussianBlur3911" />
    </filter>
    <filter
       inkscape:collect="always"
       id="filter3913">
      <feGaussianBlur
         inkscape:collect="always"
         stdDeviation="0.43086857"
         id="feGaussianBlur3915" />
    </filter>
  </defs>
  <sodipodi:namedview
     id="base"
     pagecolor="#ffffff"
     bordercolor="#666666"
     borderopacity="1.0"
     inkscape:pageopacity="0.0"
     inkscape:pageshadow="2"
     inkscape:zoom="0.98994949"
     inkscape:cx="428.33212"
     inkscape:cy="686.14293"
     inkscape:document-units="px"
     inkscape:current-layer="layer1"
     showgrid="false"
     inkscape:window-width="1920"
     inkscape:window-height="1018"
     inkscape:window-x="-8"
     inkscape:window-y="-8"
     inkscape:window-maximized="1" />
  <metadata
     id="metadata7">
    <rdf:RDF>
      <cc:Work
         rdf:about="">
        <dc:format>image/svg+xml</dc:format>
        <dc:type
           rdf:resource="http://purl.org/dc/dcmitype/StillImage" />
        <dc:title></dc:title>
      </cc:Work>
    </rdf:RDF>
  </metadata>
  <g
     inkscape:label="Calque 1"
     inkscape:groupmode="layer"
     id="layer1">
    <path
       style="opacity:0.73643411000000003;fill:url(#radialGradient3783);fill-opacity:1;stroke:none;filter:url(#filter3913)"
       id="path3759"
       d="m 81.902924,415.76393 c 2.537005,-0.29796 5.146897,-0.46397 7.744863,-0.64774 1.345319,-0.0952 2.677472,-0.22641 4.035112,-0.28742 1.61196,-0.0725 12.388291,-0.31443 13.410591,-0.33833 11.24876,-0.30484 22.52081,-0.30232 33.78775,-0.3582 3.0113,-0.0149 6.02235,-0.0605 9.03373,-0.049 3.11717,0.0119 6.23146,0.0797 9.3472,0.11951 3.03554,0.0608 6.07363,0.10397 9.10665,0.18238 2.80411,0.0725 5.61223,0.13832 8.40278,0.27023 10.37059,0.49021 20.61307,1.50206 30.7118,2.53386 14.22155,1.52536 27.89061,3.73752 41.47162,5.98663 7.07545,1.39891 14.19367,2.78164 21.0423,4.35524 7.12443,1.63697 14.07527,3.41301 21.02492,5.16494 11.79944,3.10746 23.59678,6.24657 36.1011,8.89045 2.56112,0.5415 5.18326,1.03543 7.77487,1.55315 13.01521,2.4777 26.52105,4.52796 40.37585,6.11098 11.78593,1.35576 23.89097,2.22032 35.91467,3.16611 11.87536,0.99043 23.96909,1.29758 36.05655,1.49866 11.53724,0.15944 23.06874,0.10931 34.59753,-0.1048 17.15864,-0.38895 34.26799,-1.05211 51.41009,-1.53517 8.46488,-0.11468 16.9309,-0.31535 25.40157,-0.35828 8.46826,-0.0429 16.95088,0.0361 25.41984,0.049 15.34192,0.25316 30.67846,0.53684 46.03129,0.65512 11.62204,0.0935 23.24392,0.094 34.86713,0.0391 4.18773,-0.0239 8.37516,-0.051 12.56227,-0.0889 0,0 -12.55471,3.65144 -12.55471,3.65144 l 0,0 c -3.9864,-0.0349 -7.97315,-0.0593 -11.95982,-0.0888 -11.40922,-0.0771 -22.8215,-0.11317 -34.22712,-0.24189 -15.24683,-0.2071 -30.48094,-0.50551 -45.72485,-0.73354 -16.90242,-0.12875 -33.82116,-0.0959 -50.70018,0.32522 -17.34615,0.41682 -34.64442,1.05035 -51.94782,1.68527 -11.58278,0.2779 -23.196,0.28807 -34.79038,0.094 -12.07539,-0.2024 -24.16756,-0.59184 -36.00324,-1.61771 -12.11025,-0.92002 -24.29974,-1.76509 -36.12816,-3.17772 -4.35023,-0.55482 -7.69038,-0.96051 -12.00984,-1.59906 -9.45238,-1.39737 -18.73928,-3.00596 -27.773,-4.78889 -9.96355,-2.0661 -5.60625,-1.1273 -15.6332,-3.35234 -2.63064,-0.58376 -5.30474,-1.13744 -7.88682,-1.75496 -7.02734,-1.68059 -13.58898,-3.66713 -20.65986,-5.3215 -13.46198,-3.51565 -27.34939,-6.81863 -42.11509,-9.38759 -13.54774,-2.18717 -27.03835,-4.48643 -41.21514,-5.95962 -7.39254,-0.71088 -14.78426,-1.49041 -22.27597,-2.02122 -8.36508,-0.59268 -16.83438,-0.88175 -25.31919,-0.99928 -17.54169,-0.13448 -35.0908,0.0124 -52.599816,0.48052 -8.954667,0.32499 -18.179633,0.62609 -26.616583,1.96735 0,0 12.508713,-3.96736 12.508713,-3.96736 z"
       inkscape:connector-curvature="0" />
    <path
       inkscape:connector-curvature="0"
       d="m 78.153403,253.70738 c 1.81829,0.6696 3.34663,1.41232 4.91306,2.14454 0.81116,0.37917 1.70452,0.74045 2.43782,1.13652 0.87058,0.47028 6.10106,3.70707 6.59951,4.01376 5.58701,3.35865 10.435397,6.84239 15.423867,10.30213 1.33319,0.9247 2.74098,1.83755 4.00974,2.77242 1.31345,0.9677 2.48971,1.95591 3.73455,2.93386 1.15929,0.96121 2.36251,1.91647 3.47778,2.88367 1.03111,0.89419 2.08017,1.78707 2.9607,2.69986 3.27247,3.39224 5.21926,6.94494 7.05563,10.46088 2.40985,4.97906 2.9091,10.05082 3.28047,15.10953 -0.35981,2.72261 -0.66181,5.45225 -1.54472,8.17178 -0.91847,2.82904 -2.25043,5.65779 -3.5242,8.47692 -2.48638,4.83744 -5.05078,9.68637 -6.10458,14.56381 -0.21582,0.999 -0.28949,1.99859 -0.43423,2.99788 -0.42905,4.97157 0.39423,9.93079 2.50574,14.81866 1.77394,4.16148 4.88166,8.23317 7.75648,12.31089 2.70223,4.04901 7.16259,7.90344 11.8786,11.71526 4.5805,3.62584 9.66887,7.16954 15.15544,10.64951 8.33704,5.15239 17.32062,10.18441 25.87977,15.29559 3.92484,2.57145 8.05966,5.11027 11.81228,7.71101 3.75152,2.60002 7.21244,5.25121 10.82827,7.87285 5.99079,4.83733 11.90495,9.68471 18.22885,14.47368 4.77759,3.62676 9.78164,7.2178 14.9209,10.78804 1.86178,1.28473 3.73105,2.56816 5.62669,3.84731 0,0 -14.29992,-2.47871 -14.29992,-2.47871 l 0,0 c -1.63182,-1.24508 -3.28948,-2.48622 -4.93456,-3.72931 -4.72596,-3.55469 -9.553,-7.09464 -14.15158,-10.66803 -6.06199,-4.79029 -11.89615,-9.61166 -17.90587,-14.40907 -6.96583,-5.27177 -14.33233,-10.48661 -22.62723,-15.54028 -8.48566,-5.19964 -17.47849,-10.30138 -26.47688,-15.40417 -5.66522,-3.4722 -10.69149,-7.05647 -15.21224,-10.71324 -4.7076,-3.8086 -8.96689,-7.69411 -11.56573,-11.74444 -2.9749,-4.09457 -6.16641,-8.1849 -7.82019,-12.38132 -0.52227,-1.55688 -0.97271,-2.74448 -1.27783,-4.32396 -0.66766,-3.45643 -0.7496,-6.94274 -0.29792,-10.41769 0.7409,-3.87083 0.33107,-2.16451 1.43173,-6.11588 0.28877,-1.03667 0.48561,-2.07524 0.87751,-3.10986 1.06652,-2.81577 3.07875,-5.60499 4.06268,-8.42416 2.76451,-5.50767 4.8279,-11.06522 4.72531,-16.61264 -0.50786,-5.02469 -0.71811,-10.0747 -3.23578,-15.01993 -1.45246,-2.55673 -2.73733,-5.13952 -4.67101,-7.65783 -2.15917,-2.81188 -5.10265,-5.53954 -8.47057,-8.20619 -7.227197,-5.47148 -15.142757,-10.83738 -23.823557,-16.06766 -4.64805,-2.64211 -9.354293,-5.37691 -16.254469,-7.46931 0,0 15.049529,2.34335 15.049529,2.34335 z"
       id="path3791"
       style="opacity:0.73643411000000003;fill:url(#radialGradient3797);fill-opacity:1;stroke:none;filter:url(#filter3909)" />
    <path
       style="opacity:0.73643411000000003;fill:url(#radialGradient3801);fill-opacity:1;stroke:none;filter:url(#filter3905)"
       id="path3793"
       d="m 59.720666,221.78252 c 1.0308,0.57134 1.971575,1.25561 2.923817,1.92404 0.493103,0.34614 1.012904,0.66346 1.480687,1.03683 0.555448,0.4433 4.062313,3.57339 4.395807,3.86969 3.705103,3.23141 7.155655,6.68112 10.654354,10.08913 0.935062,0.91088 1.896199,1.80059 2.808764,2.72966 0.944646,0.9617 1.840906,1.96085 2.761359,2.94129 0.878072,0.97027 1.771857,1.92927 2.634127,2.91091 0.79719,0.90753 1.60128,1.81173 2.34373,2.75595 2.7592,3.509 5.035,7.3372 7.24978,11.13512 3.057419,5.39814 5.360829,11.09912 7.605809,16.79854 0.97617,3.12536 1.97922,6.2527 2.73718,9.42869 0.78848,3.30389 1.40539,6.65023 2.04246,9.97965 0.96845,5.74416 1.90931,11.50943 3.48837,17.15073 0.32343,1.15543 0.70605,2.29685 1.05908,3.44528 1.87704,5.68338 4.26832,11.2232 7.16428,16.54876 2.45576,4.53659 5.42747,8.83333 8.30513,13.161 2.79421,4.31296 6.23706,8.22329 9.76831,12.05883 3.39817,3.63862 6.97302,7.13151 10.68665,10.51092 5.58695,4.98138 11.39227,9.75931 17.05428,14.67098 2.69048,2.51051 5.45452,4.96229 8.08568,7.52386 2.63041,2.56086 5.16145,5.20982 7.7445,7.80927 4.48376,4.86681 8.93991,9.75296 13.54185,14.53045 3.48028,3.61926 7.03971,7.17457 10.64665,10.69228 1.30311,1.26454 2.60875,2.52685 3.92358,3.78157 0,0 -6.95452,-1.33172 -6.95452,-1.33172 l 0,0 c -1.19134,-1.24336 -2.39174,-2.47961 -3.58779,-3.71933 -3.42909,-3.54288 -6.894,-7.05855 -10.278,-10.63581 -4.49385,-4.80609 -8.90607,-9.67101 -13.38122,-14.49058 -5.06766,-5.25868 -10.27795,-10.41132 -15.80663,-15.28508 -5.66813,-5.01959 -11.50609,-9.87566 -17.3468,-14.73234 -3.78448,-3.3521 -7.35034,-6.89743 -10.73653,-10.57732 -3.52643,-3.83276 -6.89875,-7.79915 -9.65063,-12.12431 -2.92611,-4.33643 -5.94029,-8.64562 -8.36064,-13.23428 -0.86011,-1.71184 -1.5378,-3.01228 -2.31719,-4.77222 -1.70555,-3.85138 -3.18058,-7.79725 -4.42961,-11.78544 -1.29276,-4.46717 -0.75741,-2.48937 -1.93426,-7.08511 -0.30876,-1.20572 -0.65642,-2.40409 -0.92155,-3.61816 -0.72161,-3.30416 -1.04007,-6.67607 -1.79735,-9.97554 -1.13013,-6.53315 -2.57165,-13.05032 -4.907189,-19.33187 -2.28754,-5.6467 -4.46213,-11.35293 -7.55023,-16.70152 -1.65911,-2.74967 -3.25952,-5.54625 -5.102332,-8.20254 -2.057623,-2.96595 -4.405696,-5.75519 -6.904576,-8.43133 -5.258621,-5.45816 -10.759068,-10.7253 -16.520747,-15.75946 -3.019569,-2.51584 -6.10159,-5.13078 -9.827877,-6.79006 0,0 7.209423,1.1006 7.209423,1.1006 z"
       inkscape:connector-curvature="0" />
  </g>
</svg>
